<svg xmlns="http://www.w3.org/2000/svg" viewBox="0 0 512 512">
  <defs>
    <linearGradient id="grad1" x1="0%" y1="0%" x2="100%" y2="100%">
      <stop offset="0%" style="stop-color:#0f172a;stop-opacity:1" /> <!-- Slate 900 -->
      <stop offset="100%" style="stop-color:#10b981;stop-opacity:1" /> <!-- Emerald 500 -->
    </linearGradient>
  </defs>
  <!-- Open Book Base -->
  <path d="M464 96h-160c-26.5 0-48 21.5-48 48v272c0 26.5 21.5 48 48 48h160c26.5 0 48-21.5 48-48V144c0-26.5-21.5-48-48-48z" fill="#334155"/>
  <path d="M48 96h160c26.5 0 48 21.5 48 48v272c0 26.5-21.5 48-48 48H48c-26.5 0-48-21.5-48-48V144c0-26.5 21.5-48 48-48z" fill="url(#grad1)"/>
  
  <!-- Neural Network Connections rising from book -->
  <circle cx="256" cy="160" r="32" fill="#10b981"/>
  <circle cx="160" cy="80" r="24" fill="#0ea5e9"/>
  <circle cx="352" cy="80" r="24" fill="#0ea5e9"/>
  
  <line x1="256" y1="160" x2="160" y2="80" stroke="#10b981" stroke-width="12"/>
  <line x1="256" y1="160" x2="352" y2="80" stroke="#10b981" stroke-width="12"/>
  
  <!-- Highlight on book pages -->
  <path d="M80 144h96" stroke="white" stroke-width="12" stroke-linecap="round" opacity="0.3"/>
  <path d="M80 192h96" stroke="white" stroke-width="12" stroke-linecap="round" opacity="0.3"/>
</svg>
